<svg width="16.800003" height="16.799999" viewBox="0 0 16.8 16.8" fill="none" xmlns="http://www.w3.org/2000/svg" xmlns:xlink="http://www.w3.org/1999/xlink">
                            <g clip-path="url(#clip2_1)">
                                <path d="M11.5092 4.94077C10.7801 4.18458 9.86459 3.8757 8.83371 3.87261C8.34886 3.87115 7.87238 3.94836 7.4048 4.07695C6.92966 4.20763 6.47501 4.38603 6.05956 4.65619C6.00464 4.69189 5.9826 4.73307 5.98253 4.79883C5.98196 5.28631 5.97707 5.77375 5.97554 6.26123C5.97415 6.70852 5.97525 7.15582 5.97519 7.6031C5.97513 8.53556 5.97606 9.46806 5.9736 10.4005C5.97336 10.4879 5.99936 10.5382 6.08252 10.574C6.37589 10.7004 6.67717 10.8013 6.9875 10.8754C7.49295 10.9962 8.00604 11.0539 8.52502 11.0782C9.07874 11.1042 9.62144 11.0572 10.1465 10.8751C11.1526 10.5262 11.8767 9.87079 12.2702 8.87373C12.5244 8.22979 12.556 7.56028 12.4487 6.88213C12.3314 6.14101 12.0322 5.4832 11.5092 4.94077Z" fill-rule="evenodd" fill="#0097FA"/>
                                <path d="M8.40001 0.286812C3.91924 0.286812 0.286819 3.91922 0.286819 8.4C0.286819 12.8808 3.91924 16.5132 8.40001 16.5132C12.8808 16.5132 16.5132 12.8808 16.5132 8.4C16.5132 3.91922 12.8808 0.286812 8.40001 0.286812ZM13.7669 8.99059C13.4558 9.7712 12.9353 10.3821 12.2459 10.853C11.5284 11.3431 10.7291 11.6168 9.87282 11.7346C8.78418 11.8845 7.72171 11.7385 6.67181 11.4507C6.467 11.3946 6.26549 11.3279 6.06464 11.2591C6.06384 11.8101 5.97578 12.4247 5.97459 12.9757C5.97446 13.0377 5.99614 13.0718 6.05815 13.0906C6.1768 13.1265 6.2921 13.1727 6.39256 13.2481C6.45154 13.2924 6.49413 13.346 6.48811 13.4265C6.48106 13.5209 6.42841 13.5734 6.33337 13.5736C6.00735 13.5743 5.68132 13.5739 5.35529 13.5739C5.03683 13.574 4.7184 13.5722 4.39995 13.5752C4.32225 13.5759 4.2683 13.5541 4.23894 13.4794C4.20944 13.4043 4.22659 13.3407 4.28104 13.285C4.37451 13.1893 4.49728 13.1471 4.6189 13.1045C4.74399 13.0607 4.74686 13.0892 4.74686 12.9263C4.74654 10.4369 4.74654 7.94745 4.74561 5.45798C4.74559 5.41938 4.76575 5.36404 4.72772 5.34594C4.35721 5.6422 3.91605 6.02229 3.64406 6.41458C3.54762 6.54135 3.45679 6.70781 3.52351 6.87605C3.55544 6.95661 3.55151 7.0498 3.52814 7.13803C3.51276 7.19598 3.48817 7.24697 3.43889 7.28347C3.3566 7.34447 3.29994 7.33531 3.24548 7.24926C3.03471 6.91608 2.82565 6.58183 2.61333 6.24966C2.5786 6.19531 2.58052 6.15723 2.62506 6.11034C2.9164 5.80368 3.23303 5.52505 3.56441 5.2632C4.40356 4.60018 5.31842 4.07006 6.32616 3.70622C6.983 3.46907 7.65891 3.31706 8.35576 3.25813C9.16945 3.18932 9.97157 3.24558 10.7571 3.47625C11.5905 3.72102 12.3252 4.1349 12.9221 4.77404C13.5181 5.41217 13.8763 6.1662 13.9912 7.03186C14.0802 7.70232 14.019 8.35813 13.7669 8.99059Z" fill-rule="evenodd" fill="#0097FA"/>
                            </g>
                            <defs>
                                <clipPath id="clip2_1">
                                    <rect width="16.799999" height="16.799999" fill="white"/>
                                </clipPath>
                            </defs>
                        </svg>
